<svg xmlns="http://www.w3.org/2000/svg" width="300" height="146.4" viewBox="0 0 300 146.4"><script xmlns=""/><defs><style>.cls-1{fill:#b71822;}.cls-2{fill:#fff;}</style></defs><path class="cls-1" d="M0,73.8v71.7c85.6-23,222.5,15.8,300-5.9V67.9C222.5,89.6,85.6,50.8,0,73.8ZM230.1,11.4q5.3,0,5.3-4.2t-4.8-4.1q-5.9,0-5.9,4.1T230.1,11.4Zm69.5,36.1V0h-8.4V1.4a39.3,39.3,0,0,1,.6,6.5V47.5a112.3,112.3,0,0,1-.6,11.6v1.5H300ZM245.9,57.8q4.4,3.4,11.4,3.4a23.4,23.4,0,0,0,7.4-1.2,38.3,38.3,0,0,0,7.9-3.9v1.1a9.1,9.1,0,0,0,.7,3.4h8.5l-1.1-3.4a30.2,30.2,0,0,1-.4-5.6V28.5q0-5.5-5.8-8.5t-16.1-3a91.6,91.6,0,0,0-12.4.9v5.7a30.5,30.5,0,0,1,12.6-3,19.3,19.3,0,0,1,10,2.4q3.9,2.4,3.9,6v1.6l-13,3.6q-9.8,3.1-14,6.5a10.4,10.4,0,0,0-4.1,8.4A10.6,10.6,0,0,0,245.9,57.8Zm15.8-20.6,10.9-3.3V52.6a20.4,20.4,0,0,1-12.3,4.2,12.9,12.9,0,0,1-8-2.3,7.3,7.3,0,0,1-3-6.1Q249.4,41.7,261.8,37.2ZM127.9,60.6h9.3l-0.6-5.3V27.8a21.4,21.4,0,0,1,5.8-4.7,14.6,14.6,0,0,1,6.5-1.3c3.5,0,6.2.7,8.2,2.1s2.8,3.4,2.8,6.7V48.2l-0.6,6.5c-0.2,2-.2,3.9-0.2,5.8h9.3q-0.8-7.8-.8-12.6V30.7q0-13.3-17-13.3a18.3,18.3,0,0,0-7.3,1.4,23.8,23.8,0,0,0-6.7,4.6V17.9h-8.5l0.7,4.5V47.8A119.1,119.1,0,0,1,127.9,60.6ZM6.2,59.1L6.5,47.5,9.2,8.9l23.4,45h5.2L60.7,8.6l2.9,38.9,0.3,5.4c0.1,2.2.2,4.2,0.2,5.9v1.8h9.8l-0.4-3-0.6-4.9-0.5-5.2L69.9,13.1c-0.1-2.3-.2-4.5-0.3-6.5s-0.1-3.7-.1-5.1V0H59.6L37.2,44.8,14,0H4.2V3.7L4,13.1,1.5,47.5a37.1,37.1,0,0,1-.3,4.8q-0.3,2.3-1,7L0,60.6H6.2V59.1ZM226,53.6a44.2,44.2,0,0,1-.7,5.5v1.5h9.2V59.1l-0.4-6.6V17.9h-8.7l0.7,3.9a21.5,21.5,0,0,1,.2,3.2V47.5C226.3,49.4,226.2,51.5,226,53.6ZM99.9,61.5q9.8,0,15.6-6t5.8-16.1q0-10.1-5.8-16t-15.6-6q-9.8,0-15.6,6t-5.8,16q0,10.2,5.8,16.2T99.9,61.5ZM87.6,30.9a17.1,17.1,0,0,1,3.8-6.5q2.9-3.3,8.4-3.3a11.9,11.9,0,0,1,5,1.1,13,13,0,0,1,4.3,3.3,13.4,13.4,0,0,1,2.9,5.4,34.4,34.4,0,0,1,.9,8.8,29.9,29.9,0,0,1-1,8,14.2,14.2,0,0,1-2.8,5.5,12.5,12.5,0,0,1-4.3,3.3,12,12,0,0,1-5,1.1,10.6,10.6,0,0,1-8.3-3.3,16.4,16.4,0,0,1-3.9-6.5,32.5,32.5,0,0,1-.9-8.5A31.6,31.6,0,0,1,87.6,30.9ZM194.1,61.4q6.6,0,12.9-4.9v4.1h8.3V59.2q0-.3-0.2-4.9c-0.1-3-.2-5.3-0.2-6.8V0h-8.2V1.6L207,8V20.6A17.1,17.1,0,0,0,196.6,17a20,20,0,0,0-15.3,6.7,23.7,23.7,0,0,0-6.2,16.7q0,9.2,5.4,15.1A17.6,17.6,0,0,0,194.1,61.4ZM187.2,26a12.4,12.4,0,0,1,10.3-5.3,14.1,14.1,0,0,1,9.5,4v27q-4.5,5.5-10.6,5.5a11.5,11.5,0,0,1-9.8-4.6q-3.5-4.6-3.5-13T187.2,26Z" transform="translate(0 0)"/><path class="cls-2" d="M25.3,74.1H75v7.5q-7.5-.7-11.9-0.7H57v45.7l0.4,4.9,0.3,2.9H42.5l0.4-2.9,0.3-4.9V80.9H37.1L32,81l-6.7.6V74.1Z" transform="translate(0 0)"/><path class="cls-2" d="M90.9,80.4v1.2q0,1.9-.2,5.7t-0.2,4.2v32c0,1.1.1,3.1,0.2,5.9s0.2,4.5.2,5.1H78.4v-1.3c0-1.2,0-2.6.1-4.2s0.1-3.5.3-5.5v-32q0-2.5-.2-6.6c-0.1-2.7-.2-4.2-0.2-4.5H90.9Z" transform="translate(0 0)"/><path class="cls-2" d="M99.2,122.7q8,6.8,15.9,6.8a12.9,12.9,0,0,0,8.1-2.4,7.5,7.5,0,0,0,3.1-6.2,7,7,0,0,0-2-4.9,20.5,20.5,0,0,0-6.7-4.2l-4.6-2-3.5-1.7-6.1-3.5q-4.2-2.5-4.2-9.7t6-10.8q6-4.3,15.2-4.3a41.8,41.8,0,0,1,13.3,2.5v8.6q-7.2-5.6-13.8-5.6a11.1,11.1,0,0,0-6.9,2.1,6.5,6.5,0,0,0-2.7,5.4,5.9,5.9,0,0,0,1.6,4.4q1.6,1.6,6.6,3.7l5.6,2.5q7.2,3.1,10.3,6.6a12.8,12.8,0,0,1,3.1,8.7,14.5,14.5,0,0,1-6.1,12q-6.1,4.7-15.7,4.6a45,45,0,0,1-16.5-3.7v-8.8Z" transform="translate(0 0)"/><path class="cls-2" d="M142.5,122.7q8,6.8,15.9,6.8a12.9,12.9,0,0,0,8.1-2.4,7.5,7.5,0,0,0,3.1-6.2,7,7,0,0,0-2-4.9,20.5,20.5,0,0,0-6.7-4.2l-4.6-2-3.5-1.7-6.1-3.5q-4.2-2.5-4.2-9.7t6-10.8q6-4.3,15.2-4.3a41.7,41.7,0,0,1,13.3,2.5v8.6q-7.2-5.6-13.8-5.6a11.1,11.1,0,0,0-6.9,2.1,6.5,6.5,0,0,0-2.7,5.4,5.9,5.9,0,0,0,1.6,4.4q1.6,1.6,6.6,3.7l5.6,2.5c4.8,2.1,8.2,4.3,10.3,6.6a12.8,12.8,0,0,1,3.1,8.7,14.5,14.5,0,0,1-6.1,12q-6.1,4.7-15.7,4.6a45,45,0,0,1-16.5-3.7v-8.8Z" transform="translate(0 0)"/><path class="cls-2" d="M199.5,80.4v1.2c-0.2,1.7-.4,3.2-0.4,4.6s-0.1,3.1-.1,5.2v26a24.1,24.1,0,0,0,1.4,7.9q1.4,4,10.9,4t10.6-3.6a15.3,15.3,0,0,0,2-7.4v-31l-0.3-4.4-0.5-2.5h8.1l-0.3,2.5-0.3,8.4v27.1q0,16.8-22,16.8-10,0-15.6-4.4t-5.6-12.3V87.3l-0.7-4.4V80.4h12.9Z" transform="translate(0 0)"/><path class="cls-2" d="M236.4,122.7q8,6.8,15.9,6.8a12.9,12.9,0,0,0,8.1-2.4,7.5,7.5,0,0,0,3.1-6.2,7,7,0,0,0-2-4.9,20.5,20.5,0,0,0-6.7-4.2l-4.6-2-3.5-1.7-6.1-3.5q-4.2-2.5-4.2-9.7t6-10.8q6-4.3,15.2-4.3a41.7,41.7,0,0,1,13.3,2.5v8.6q-7.2-5.6-13.8-5.6a11.1,11.1,0,0,0-6.9,2.1,6.5,6.5,0,0,0-2.7,5.4,5.9,5.9,0,0,0,1.6,4.4q1.6,1.6,6.6,3.7l5.6,2.5q7.2,3.1,10.3,6.6a12.8,12.8,0,0,1,3.1,8.7,14.5,14.5,0,0,1-6.1,12q-6.1,4.7-15.7,4.6a45.1,45.1,0,0,1-16.5-3.7v-8.8Z" transform="translate(0 0)"/></svg>
